<svg width="819" height="497" viewBox="0 0 819 497" fill="none" xmlns="http://www.w3.org/2000/svg">
<path d="M472.723 399.287C470.811 399.287 468.942 399.858 467.352 400.927C465.763 401.996 464.524 403.515 463.792 405.292C463.06 407.07 462.869 409.026 463.242 410.913C463.615 412.8 464.536 414.533 465.887 415.894C467.239 417.254 468.962 418.181 470.837 418.556C472.712 418.931 474.656 418.739 476.422 418.003C478.189 417.266 479.699 416.019 480.761 414.42C481.823 412.82 482.39 410.939 482.39 409.015C482.39 406.435 481.371 403.961 479.558 402.136C477.746 400.312 475.287 399.287 472.723 399.287ZM472.723 415.002C471.546 415.002 470.396 414.651 469.418 413.993C468.44 413.335 467.677 412.4 467.227 411.306C466.777 410.212 466.659 409.009 466.888 407.847C467.118 406.686 467.684 405.619 468.516 404.782C469.348 403.945 470.408 403.375 471.562 403.144C472.716 402.913 473.913 403.031 475 403.484C476.087 403.937 477.016 404.705 477.669 405.689C478.323 406.674 478.672 407.831 478.672 409.015V409.015C478.672 410.603 478.045 412.126 476.93 413.248C475.814 414.371 474.301 415.002 472.723 415.002V415.002Z" fill="#E4E4E4"/>
<path d="M435.542 391.804H472.723V428.835C472.723 430.128 472.213 431.367 471.304 432.282C470.396 433.196 469.164 433.709 467.879 433.709H440.386C439.101 433.709 437.869 433.196 436.961 432.282C436.052 431.367 435.542 430.128 435.542 428.835V391.804V391.804Z" fill="#E4E4E4"/>
<path d="M559.595 434.557H0.754131C0.546883 434.534 0.355325 434.435 0.21617 434.279C0.077015 434.122 6.10352e-05 433.92 6.10352e-05 433.71C6.10352e-05 433.5 0.077015 433.298 0.21617 433.142C0.355325 432.985 0.546883 432.886 0.754131 432.863H559.595C559.802 432.886 559.994 432.985 560.133 433.142C560.272 433.298 560.349 433.5 560.349 433.71C560.349 433.92 560.272 434.122 560.133 434.279C559.994 434.435 559.802 434.534 559.595 434.557V434.557Z" fill="#CACACA"/>
<path d="M75.2231 418.564L71.7669 435.761L136.038 457.363L141.14 431.98L75.2231 418.564Z" fill="#FFB6B6"/>
<path d="M81.6847 415.313L74.8774 449.181L74.8771 449.182C73.7261 454.906 70.3627 459.936 65.5269 463.165C60.6911 466.393 54.7789 467.557 49.0906 466.399L48.3937 466.257L59.5394 410.806L81.6847 415.313Z" fill="#2F2E41"/>
<path d="M148.056 181.676C172.158 181.676 191.697 162.014 191.697 137.76C191.697 113.505 172.158 93.8435 148.056 93.8435C123.954 93.8435 104.416 113.505 104.416 137.76C104.416 162.014 123.954 181.676 148.056 181.676Z" fill="#FEB8B8"/>
<path d="M188.817 99.8724C182.292 89.2105 172.079 81.3542 160.144 77.8157L154.786 81.75V76.6414C151.92 76.1999 149.018 76.0298 146.12 76.1334L141.498 80.3421V76.4831C134.655 77.3389 128.061 79.6124 122.134 83.1601C116.207 86.7079 111.075 91.453 107.061 97.0963C97.0231 111.659 95.3286 131.918 105.202 146.597C107.912 138.215 111.201 130.351 113.912 121.97C116.042 122.262 118.201 122.273 120.334 122.001L123.631 114.259L124.552 121.673C134.773 120.778 149.932 118.81 159.62 117.008L158.678 111.319L164.315 116.046C167.283 115.358 169.046 114.734 168.9 114.258C176.106 125.948 184.925 133.415 192.13 145.105C194.867 128.621 198.017 114.915 188.817 99.8724Z" fill="#2F2E41"/>
<path d="M162.255 425.138C224.314 425.138 274.623 410.977 274.623 393.508C274.623 376.04 224.314 361.878 162.255 361.878C100.196 361.878 49.8877 376.04 49.8877 393.508C49.8877 410.977 100.196 425.138 162.255 425.138Z" fill="#2F2E41"/>
<path d="M241.915 250.691C240.414 241.606 238.866 232.346 234.67 224.162C231.912 218.801 227.535 213.692 221.634 212.632C220.471 212.528 219.329 212.262 218.239 211.842C216.51 211.003 193.274 197.655 189.581 195.33C186.41 193.335 181.404 189.639 178.88 189.639C176.341 189.583 166.605 191.863 128.602 188.874C122.21 191.456 116.02 194.519 110.085 198.036C109.962 197.955 70.6417 219.203 69.1644 219.147C66.3668 219.029 63.7665 220.831 62.1627 223.101C60.5593 225.371 59.8071 228.181 59.0196 230.898C67.6079 250.145 75.4657 269.416 84.0548 288.663C84.457 289.388 84.6707 290.203 84.676 291.033C84.5034 291.895 84.138 292.705 83.6075 293.404C79.3955 300.212 79.5294 308.776 79.9895 316.779C80.45 324.781 81.0194 333.234 77.4655 340.407C76.4989 342.376 75.2419 344.179 74.3225 346.148C72.1695 350.608 71.3914 364.873 72.6489 369.665L230.201 374.207C226.814 364.836 241.915 250.691 241.915 250.691Z" fill="url(#paint0_linear)"/>
<path d="M45.4009 289.516C45.0865 291.804 45.0549 294.123 45.3067 296.419L47.5648 329.054C47.7768 332.13 47.9855 335.198 48.2724 338.266C48.8142 344.221 49.6235 350.128 50.6281 356.026C50.6508 356.864 51.0027 357.658 51.6066 358.235C52.2106 358.811 53.0172 359.123 53.8495 359.102C63.7898 361.219 74.0599 361.134 84.2046 360.558C99.685 359.688 139.29 358.043 141.709 354.88C144.129 351.717 142.719 346.601 139.564 344.043C136.409 341.485 84.1449 335.25 84.1449 335.25C84.6556 331.177 86.196 327.342 87.6574 323.476C90.2824 316.618 92.734 309.535 92.7811 302.188C92.8282 294.842 90.0779 287.118 84.0978 282.91C79.1785 279.454 72.845 278.814 66.8506 278.956C62.4891 279.082 54.9533 278.03 50.9697 279.746C47.8172 281.143 45.9898 286.41 45.4009 289.516Z" fill="#FBBEBE"/>
<path d="M242.194 363.286C244.811 362.282 247.695 362.645 250.5 363.026C259.529 364.267 268.691 365.54 277.06 369.17C280.989 370.863 284.729 373.124 287.385 376.451C289.741 379.448 291.117 383.117 292.422 386.731L295.44 395.05C296.723 398.175 297.608 401.451 298.073 404.8C299.016 414.755 292.25 424.141 283.74 429.313C275.23 434.486 265.211 436.327 255.451 438.257C245.691 440.186 235.893 442.32 226.173 444.583C221.639 445.767 217.039 446.677 212.398 447.311C201.994 448.496 191.119 446.749 181.233 450.213C177.304 451.597 173.446 453.653 169.37 454.609C166.661 455.183 163.923 455.603 161.167 455.867L142.457 458.017C138.653 458.529 134.823 458.825 130.985 458.903C122.813 458.903 114.774 456.955 106.839 455.008C105.996 454.859 105.193 454.533 104.483 454.051C103.226 453.055 102.951 451.291 102.77 449.695C101.969 442.625 101.268 435.548 100.667 428.463C100.478 426.162 100.337 423.671 101.586 421.734C103.158 419.364 106.223 418.619 109.02 418.16C120.882 416.207 132.899 415.368 144.916 415.653C149.481 411.059 157.009 411.035 162.989 408.536C165.189 407.519 167.318 406.354 169.362 405.049C180.059 398.769 192.012 394.968 204.353 393.923C206.77 393.849 209.171 393.504 211.512 392.895C216.139 391.448 220.36 387.51 225.114 388.475C225.702 386.838 226.111 384.647 227.469 383.525C228.142 382.947 228.978 382.56 229.599 381.943C230.911 380.607 231.029 378.503 230.832 376.637C230.635 374.771 230.195 372.858 230.675 371.038C230.874 370.35 231.168 369.692 231.547 369.085C233.896 364.994 237.456 362.891 242.194 363.286Z" fill="#2F2E41"/>
<path d="M58.5651 231.484C57.7998 232.29 57.2063 233.246 56.8211 234.291C50.4694 248.696 46.7176 264.125 45.7416 279.854C45.7587 280.621 45.5831 281.38 45.2309 282.06C44.8837 282.513 44.4971 282.934 44.0758 283.318C43.7085 283.756 43.4305 284.262 43.2578 284.809C43.0851 285.355 43.021 285.93 43.0692 286.501C43.1174 287.073 43.2769 287.629 43.5386 288.138C43.8003 288.647 44.1591 289.099 44.5946 289.469C44.666 289.53 44.7393 289.588 44.8145 289.644C46.111 287.188 49.2146 286.386 51.9733 286.172C65.1822 285.121 78.0848 291.305 91.3332 290.838C90.3984 287.588 89.054 284.465 88.2918 281.176C84.9206 266.57 93.3288 250.669 88.174 236.601C87.1442 233.786 85.4237 231.018 82.7129 229.784C81.5904 229.329 80.4158 229.016 79.2164 228.853C75.8687 228.244 69.2046 225.643 65.968 226.687C64.7733 227.074 64.3021 228.205 63.3119 228.888C61.8076 229.855 59.812 230.21 58.5651 231.484Z" fill="#A5A6F6"/>
<path d="M242.009 279.746C238.025 278.03 230.489 279.082 226.128 278.956C220.134 278.814 213.8 279.454 208.881 282.91C202.901 287.118 200.15 294.842 200.197 302.188C200.245 309.535 202.696 316.618 205.321 323.476C206.783 327.342 208.323 331.177 208.834 335.25C208.834 335.25 156.57 341.485 153.415 344.043C150.26 346.601 148.85 351.717 151.269 354.88C153.689 358.043 229.189 361.219 239.129 359.102C239.961 359.123 240.768 358.811 241.372 358.235C241.976 357.658 242.328 356.864 242.351 356.026C243.355 350.128 244.164 344.221 244.706 338.266C244.993 335.198 245.202 332.13 245.414 329.054L247.672 296.419C247.924 294.123 247.892 291.804 247.578 289.516C246.989 286.41 245.161 281.143 242.009 279.746Z" fill="#FBBEBE"/>
<path d="M229.667 228.888C228.676 228.205 228.205 227.074 227.011 226.687C223.774 225.643 217.11 228.244 213.762 228.853C212.563 229.016 211.388 229.329 210.266 229.784C207.555 231.018 205.834 233.786 204.805 236.601C199.65 250.669 208.058 266.57 204.687 281.176C203.925 284.465 202.58 287.588 201.645 290.838C214.894 291.305 227.796 285.121 241.005 286.172C243.764 286.386 246.868 287.188 248.164 289.644C248.239 289.588 248.313 289.53 248.384 289.469C248.819 289.099 249.178 288.647 249.44 288.138C249.702 287.629 249.861 287.073 249.909 286.501C249.958 285.93 249.893 285.355 249.721 284.809C249.548 284.262 249.27 283.756 248.903 283.318C248.482 282.934 248.095 282.513 247.748 282.06C247.396 281.38 247.22 280.621 247.237 279.854C246.261 264.125 242.509 248.696 236.158 234.291C235.772 233.246 235.179 232.29 234.413 231.484C233.167 230.21 231.171 229.855 229.667 228.888Z" fill="#B1ADFF"/>
<path d="M251.761 443.114L249.465 460.506L181.706 459.867L185.096 434.197L251.761 443.114Z" fill="#FFB6B6"/>
<path d="M269.101 440.918L261.694 497L260.989 496.906C255.237 496.136 250.023 493.098 246.496 488.461C242.969 483.823 241.416 477.966 242.18 472.177L242.18 472.175L246.705 437.923L269.101 440.918Z" fill="#2F2E41"/>
<path d="M92.3521 372.088C92.3521 372.879 91.1187 372.088 91.0059 371.241C90.1419 364.844 85.0964 359.57 79.2189 357.008C73.3414 354.446 66.6461 354.311 60.2815 354.92C50.6559 355.837 39.8507 359.546 36.3306 368.6C35.4976 370.716 27.6952 389.563 28.4566 393.801C30.5077 405.109 38.1924 414.78 47.5042 421.478C56.8161 428.176 67.6961 432.177 78.5492 435.786C107.244 445.309 136.684 452.385 166.558 456.938C171.398 457.674 176.286 458.354 180.922 459.919C185.071 461.319 188.952 463.414 193.008 465.059C202.437 468.869 212.582 470.231 222.632 471.568C224.345 471.789 226.309 471.947 227.574 470.777C229.209 469.253 228.668 466.594 228.203 464.403C226.497 456.075 227.928 447.406 232.219 440.08C233.901 437.234 236.089 434.315 235.771 431.021C235.394 427.178 231.59 424.458 227.802 423.841C224.015 423.224 220.165 424.134 216.36 424.631C215.057 424.933 213.691 424.797 212.471 424.244C211.906 423.86 211.393 423.403 210.946 422.884C208.326 420.341 204.973 418.697 201.368 418.19C197.762 417.683 194.09 418.338 190.877 420.061C189.471 420.852 187.344 419.088 185.88 418.425L169.355 410.896C150.37 402.254 131.291 393.571 111.206 388.099C109.604 387.782 108.08 387.144 106.727 386.224C105.729 385.434 105.014 384.362 104.094 383.48C102.09 381.575 99.2989 380.815 96.8969 379.463C94.4949 378.111 91.8018 374.8 92.3521 372.088Z" fill="#2F2E41"/>
<path d="M135.131 360.661C141.636 360.661 146.91 355.354 146.91 348.808C146.91 342.262 141.636 336.955 135.131 336.955C128.626 336.955 123.353 342.262 123.353 348.808C123.353 355.354 128.626 360.661 135.131 360.661Z" fill="#FBBEBE"/>
<path d="M161.213 360.661C167.718 360.661 172.991 355.354 172.991 348.808C172.991 342.262 167.718 336.955 161.213 336.955C154.707 336.955 149.434 342.262 149.434 348.808C149.434 355.354 154.707 360.661 161.213 360.661Z" fill="#FBBEBE"/>
<path d="M233.919 375.517H72.0988C70.2096 375.515 68.3983 374.759 67.0623 373.414C65.7264 372.07 64.9748 370.247 64.9726 368.346V269.554C64.9748 267.653 65.7264 265.83 67.0623 264.486C68.3983 263.142 70.2096 262.386 72.0988 262.384H233.919C235.808 262.386 237.619 263.142 238.955 264.486C240.291 265.83 241.043 267.653 241.045 269.554V368.346C241.043 370.247 240.291 372.07 238.955 373.414C237.619 374.759 235.808 375.515 233.919 375.517Z" fill="#3F3D56"/>
<path d="M152.616 323.695C155.22 323.695 157.331 321.571 157.331 318.95C157.331 316.33 155.22 314.206 152.616 314.206C150.012 314.206 147.901 316.33 147.901 318.95C147.901 321.571 150.012 323.695 152.616 323.695Z" fill="white"/>
<path d="M730.297 178.178H520.055C518.94 178.176 517.871 177.73 517.082 176.936C516.294 176.143 515.85 175.067 515.849 173.944V134.067H517.531V173.944C517.532 174.618 517.798 175.263 518.272 175.74C518.745 176.216 519.386 176.484 520.055 176.484H730.297C730.966 176.484 731.608 176.216 732.081 175.74C732.554 175.263 732.82 174.618 732.821 173.944V133.789H734.504V173.944C734.503 175.067 734.059 176.143 733.27 176.936C732.482 177.73 731.412 178.176 730.297 178.178V178.178Z" fill="#3F3D56"/>
<path d="M806.511 133.221H312.466V134.914H806.511V133.221Z" fill="#3F3D56"/>
<path d="M312.502 148.499C320.495 148.499 326.975 141.979 326.975 133.935C326.975 125.892 320.495 119.371 312.502 119.371C304.509 119.371 298.03 125.892 298.03 133.935C298.03 141.979 304.509 148.499 312.502 148.499Z" fill="#6C63FF"/>
<path d="M459.57 148.499C467.563 148.499 474.043 141.979 474.043 133.935C474.043 125.892 467.563 119.371 459.57 119.371C451.578 119.371 445.098 125.892 445.098 133.935C445.098 141.979 451.578 148.499 459.57 148.499Z" fill="#6C63FF"/>
<path d="M559.379 191.306C567.372 191.306 573.851 184.786 573.851 176.742C573.851 168.699 567.372 162.178 559.379 162.178C551.386 162.178 544.906 168.699 544.906 176.742C544.906 184.786 551.386 191.306 559.379 191.306Z" fill="#3F3D56"/>
<path d="M635.256 191.306C643.249 191.306 649.728 184.786 649.728 176.742C649.728 168.699 643.249 162.178 635.256 162.178C627.263 162.178 620.783 168.699 620.783 176.742C620.783 184.786 627.263 191.306 635.256 191.306Z" fill="#CCCCCC"/>
<path d="M598.487 148.499C606.48 148.499 612.96 141.979 612.96 133.935C612.96 125.892 606.48 119.371 598.487 119.371C590.494 119.371 584.015 125.892 584.015 133.935C584.015 141.979 590.494 148.499 598.487 148.499Z" fill="#6C63FF"/>
<path d="M804.527 148.499C812.52 148.499 819 141.979 819 133.935C819 125.892 812.52 119.371 804.527 119.371C796.535 119.371 790.055 125.892 790.055 133.935C790.055 141.979 796.535 148.499 804.527 148.499Z" fill="#6C63FF"/>
<path d="M733.662 148.499C741.655 148.499 748.135 141.979 748.135 133.935C748.135 125.892 741.655 119.371 733.662 119.371C725.669 119.371 719.19 125.892 719.19 133.935C719.19 141.979 725.669 148.499 733.662 148.499Z" fill="#6C63FF"/>
<path d="M572.478 0H545.634V18.6175H572.478V0Z" fill="#3F3D56"/>
<path d="M326.03 0H299.186V18.6175H326.03V0Z" fill="#6C63FF"/>
<path d="M416.955 0H390.111V18.6175H416.955V0Z" fill="#CCCCCC"/>
<path d="M357.381 134.914C357.158 134.914 356.944 134.825 356.786 134.666C356.628 134.507 356.54 134.292 356.54 134.068V92.2753C356.541 91.153 356.985 90.077 357.773 89.2834C358.562 88.4898 359.631 88.0434 360.746 88.0421H401.698C401.921 88.0421 402.135 88.1313 402.293 88.2901C402.45 88.4489 402.539 88.6642 402.539 88.8888C402.539 89.1133 402.45 89.3287 402.293 89.4874C402.135 89.6462 401.921 89.7354 401.698 89.7354H360.746C360.077 89.7361 359.435 90.004 358.962 90.4801C358.489 90.9563 358.223 91.6019 358.222 92.2753V134.068C358.222 134.292 358.134 134.507 357.976 134.666C357.818 134.825 357.604 134.914 357.381 134.914V134.914Z" fill="#3F3D56"/>
<path d="M403.622 103.136C411.615 103.136 418.095 96.6157 418.095 88.5722C418.095 80.5288 411.615 74.0083 403.622 74.0083C395.629 74.0083 389.15 80.5288 389.15 88.5722C389.15 96.6157 395.629 103.136 403.622 103.136Z" fill="#E6E6E6"/>
<path d="M681.292 134.068H679.609V92.2753C679.611 91.153 680.054 90.077 680.843 89.2834C681.632 88.4898 682.701 88.0434 683.816 88.0421H724.768V89.7354H683.816C683.147 89.7361 682.505 90.004 682.032 90.4801C681.559 90.9563 681.293 91.6019 681.292 92.2753V134.068Z" fill="#3F3D56"/>
<path d="M726.692 103.136C734.685 103.136 741.165 96.6157 741.165 88.5722C741.165 80.5288 734.685 74.0083 726.692 74.0083C718.699 74.0083 712.22 80.5288 712.22 88.5722C712.22 96.6157 718.699 103.136 726.692 103.136Z" fill="#E6E6E6"/>
<defs>
<linearGradient id="paint0_linear" x1="150.467" y1="188.874" x2="150.467" y2="377.459" gradientUnits="userSpaceOnUse">
<stop stop-color="#6C63FF"/>
<stop offset="1" stop-color="white" stop-opacity="0"/>
</linearGradient>
</defs>
</svg>
